<?xml version="1.0" encoding="utf-8"?>
<!-- Generator: Adobe Illustrator 25.4.1, SVG Export Plug-In . SVG Version: 6.00 Build 0)  -->
<svg version="1.1" id="Layer_1" xmlns="http://www.w3.org/2000/svg" xmlns:xlink="http://www.w3.org/1999/xlink" x="0px" y="0px"
	 viewBox="0 0 800 473.92" style="enable-background:new 0 0 800 473.92;" xml:space="preserve">
<style type="text/css">
	.st0{fill:#FEFEFE;}
	.st1{fill:#979797;}
	.st2{fill:#5D5D5D;}
	.st3{fill:#929292;}
	.st4{fill:#5D5C5C;}
	.st5{fill:#648DAB;}
	.st6{fill:#99BD3E;}
	.st7{fill:#FCB94E;}
	.st8{fill:#D46A1D;}
	.st9{fill:#9ABD3F;}
	.st10{fill:#D46C20;}
	.st11{fill:#FCBA51;}
</style>
<g>
	<g>
		<path class="st0" d="M715.93,465.82c-238.94,0-477.89,0-716.83,0c0-153.77,0.02-307.54-0.09-461.31c0-3.75,0.84-4.59,4.59-4.59
			c263.6,0.1,527.21,0.1,790.81,0c3.75,0,4.6,0.84,4.59,4.59c-0.11,152.27-0.11,304.54,0,456.81c0,3.74-0.83,4.63-4.59,4.6
			c-25.49-0.19-50.99-0.1-76.48-0.1c12.81-5.55,22.25-14.25,26.29-28.02c3.36-11.46,4.31-23.19,3.18-35.01
			c-0.32-3.35,0.42-7.07-2.15-11.55c-0.23,26.46-9.31,48.3-24.45,67.92C719.12,461.33,716.4,462.77,715.93,465.82z M629.52,407.37
			c5.01-0.93,10.03-1.85,15.04-2.78c-5.11-1.2-10.17-0.65-15.22-0.03c-2.6-12.59-11.11-19.89-22.97-19.7
			c-11.42,0.18-19.86,8.04-21.83,20.34c-4.51,0.01-8.96-0.57-13.33-1.59c-7.43-1.73-10.92-6.12-11.25-13.73
			c-0.21-4.74,0.82-9.26,2.53-13.61c9.19-23.34,28.03-32.81,51.47-35.59c1.49,6.11,4.15,11.5,8.95,15.79
			c8.08,7.21,20.81,8.53,30.23,2.97c10.28-6.06,15.25-17.67,12.45-29.08c-2.72-11.09-12.36-18.85-23.6-19.69
			c-11.85-0.88-24.88,6.29-28.04,22.32c-9-2.13-10.66-5.65-6.28-13.84c1.4-2.62,3.11-5.12,4.96-7.45
			c7.19-9.05,15.93-16.51,24.74-23.9c1.19-1,3.22-1.54,3.11-4.73c-6.76,4.38-13.06,8.29-19.19,12.45
			c-23.34,15.86-45.57,33.03-63.53,55.07c-14.22,17.45-22.9,37.04-21.58,60.04c0.71,12.24,4.11,23.75,11.36,34.62
			c0.61-2.41,0.98-4.15,1.5-5.85c3.13-10.32,9.72-17.34,20.16-20.27c5.43-1.52,11.05-2.37,16.59-3.52
			c2.49,5.45,6.21,9.68,11.74,12.25C610.72,434,628.97,425.94,629.52,407.37z M702.89,61.98c4.43,11.38,12.62,16.86,24.01,16.06
			c10.08-0.7,17.42-7.64,20.07-19c4.32-0.14,8.61,0.08,12.91,0.72c11.32,1.68,15.89,7.51,14.42,18.8
			c-1.86,14.25-8.54,25.7-20.26,34.03c-9.63,6.84-20.25,11.28-32.15,12.28c-0.29-1.3-0.63-2.58-0.87-3.89
			c-2.25-11.87-12.73-20.63-24.73-20.64c-12.11-0.01-23.27,9.17-25.23,20.78c-2.11,12.5,4.71,24.79,16.35,28.66
			c13.56,4.52,28.8-1.38,33.59-17.91c0.98,0.17,1.98,0.26,2.92,0.52c8.09,2.29,9.47,5.27,6.1,13.13c-1.92,4.47-4.9,8.23-7.91,11.98
			c-7.8,9.73-17.43,17.63-26.3,26.29c-0.53,0.2-1.05,0.4-1.58,0.6c0.68,1.07,1.43,0.59,2.19,0.11c8.25-5.02,16.04-10.71,23.72-16.55
			c22.86-17.37,44.8-35.76,61.15-59.72c16.33-23.93,21.89-49.63,10.7-77.45c-1.81-4.5-3.68-9.07-7.66-12.9
			c-2.01,15.72-10.45,24.88-25.37,28.13c-4.06,0.88-8.05,2.04-12.08,3.07c-0.73-1.27-1.5-2.52-2.19-3.82
			c-5.53-10.41-17.61-14.99-28.51-10.45c-10.79,4.5-14.63,13.28-14.17,24.44c-4.58,1.06-9.15,2.13-14.03,3.26
			C693.3,63.94,698.04,62.05,702.89,61.98z M792.95,108.02c-0.39,0.28-0.9,0.49-1.15,0.86c-15.77,23.14-35.98,41.9-58.49,58.18
			c-28.08,20.3-57.73,38.22-87.23,56.34c-25.41,15.61-48.59,34.02-68.18,56.55c-17.58,20.2-27.87,44.39-35.79,69.66
			c-0.78,2.5-2.17,4.99-1.75,8.62c1.54-1.84,2.6-3.08,3.64-4.34c9.53-11.61,20.02-22.28,31.28-32.22
			c22.32-19.71,47.66-35.16,72.59-51.14c29.13-18.67,59.42-35.58,84.96-59.45c22.18-20.72,41.16-43.55,51.56-72.52
			c3.58-9.98,7.64-19.86,8.5-30.61c0.23-0.19,0.46-0.38,0.7-0.57c-0.15-0.11-0.29-0.21-0.44-0.32
			C793.07,107.37,793.01,107.7,792.95,108.02z M346,213.92c-14.33,0-28.66,0.11-42.98-0.09c-3.19-0.04-4.25,1.06-4.78,3.99
			c-2.19,12.1-4.5,24.18-6.96,36.23c-0.66,3.21,0.2,3.97,3.37,3.91c10.16-0.18,20.32,0.04,30.48-0.13c3.6-0.06,5.17,0.12,4.19,4.7
			c-3.16,14.8-5.77,29.71-8.42,44.61c-0.6,3.37-2.16,5.01-5.51,5.93c-12.61,3.44-25.33,3.51-38.14,1.73
			c-25.67-3.57-42.76-19.24-48.37-44.43c-3.47-15.58-2.57-31.2,1.34-46.5c9.82-38.45,33.05-64.01,72.65-72.49
			c26-5.57,51.66-3.05,76.52,6.45c3.12,1.19,4.13,0.83,5.19-2.38c3.69-11.2,7.73-22.29,11.65-33.41
			c3.55-10.06,3.62-10.29-6.62-13.09c-37.58-10.29-75.27-10.62-112.86-0.25c-28.88,7.96-54.13,22.26-73.72,45.3
			c-28.83,33.9-40.46,73.46-35.6,117.36c3.97,35.87,22.01,62.96,55.18,78.86c17.71,8.49,36.66,11.71,56.13,12.18
			c28.23,0.69,55.58-4.51,82.55-12.43c4.38-1.28,5.99-3.4,6.78-7.65c7.71-41.35,15.57-82.67,23.54-123.97
			c0.69-3.56,0.12-4.57-3.62-4.51C373.99,214.04,359.99,213.92,346,213.92z M45.49,363.84c5.75,0.28,12.22-0.2,18.67-1
			c24.87-3.09,45.39-13.48,59.17-35.22c8.3-13.08,13.72-27.39,16.67-42.46c11.65-59.35,22.91-118.79,34.46-178.16
			c0.67-3.44-1.01-3.05-3.08-3.05c-15.82,0.01-31.64,0.13-47.46-0.09c-3.32-0.05-4.21,1.29-4.74,4.1
			c-8.71,46.38-17.38,92.78-26.29,139.12c-2.85,14.82-4.51,29.96-10.84,43.94c-5.36,11.83-13.5,20.59-26.72,23.3
			c-12.81,2.63-25.5,1.12-38-2.14c-3.32-0.87-4.85-0.84-5.65,3.23c-2.48,12.71-5.42,25.35-8.41,37.95c-0.89,3.74,0.17,5.4,3.87,6.27
			C19.52,362.56,32.02,364.13,45.49,363.84z M493.93,103.97c-1.89,0-3.52,0-5.15,0c-15,0-30,0.18-44.99-0.12
			c-4.18-0.08-5.15,1.56-5.82,5.19c-5.03,27.31-10.24,54.59-15.43,81.87c-10.44,54.89-20.89,109.77-31.42,164.64
			c-0.69,3.61,0.33,4.43,3.88,4.39c15.49-0.19,30.99-0.17,46.49,0c3.18,0.03,4.1-0.96,4.68-4.06
			c10.46-55.56,21.09-111.09,31.66-166.64C483.2,161,488.5,132.73,493.93,103.97z M737.72,413.41c0.95-9.53,2.04-18.08,2.6-26.66
			c1.99-30.4-0.58-60.11-13.42-88.32c-7.51-16.49-14.73-33.11-24.29-48.57c-1.52-2.46-2.66-3.6-5.72-1.6
			c-9.88,6.46-19.96,12.63-30.06,18.73c-2.57,1.55-2.99,2.58-1.13,5.24c6.78,9.67,13.24,19.57,19.81,29.39
			c22.61,33.79,41.2,69.45,50.78,109.3C736.42,411.5,736.89,412,737.72,413.41z M597.08,53.4c-0.97,8.98-2.07,16.67-2.58,24.39
			c-2.04,30.66-0.34,60.8,12.53,89.43c7.43,16.53,14.83,33.05,24.53,48.42c3.75,5.95,3.75,5.93,9.52,2.4
			c8.79-5.39,17.48-10.96,26.44-16.03c3.5-1.98,3.24-3.42,1.23-6.3c-5.05-7.22-9.72-14.7-14.65-22.01
			c-19.75-29.32-37.23-59.83-48.84-93.39C602.35,71.88,600.05,63.24,597.08,53.4z M648.06,88.13c10.92,0.18,19.81-8.47,19.87-19.32
			c0.06-10.54-8.58-19.4-19.16-19.65c-10.54-0.25-19.55,8.36-19.83,18.93C628.66,79.04,637.17,87.95,648.06,88.13z M683.41,376.73
			c-11.02-0.06-19.66,8.55-19.61,19.53c0.05,10.69,8.58,19.3,19.28,19.44c10.69,0.14,19.78-8.91,19.7-19.62
			C702.7,385.42,694.06,376.78,683.41,376.73z M615.84,6.32c-10.19,2.82-17.85,8.8-22.9,17.82c-8.49,15.17-7.7,31.72-6.42,48.22
			c0.24,3.09-0.19,6.57,2.25,9.56C587.69,52.96,598.33,28.48,615.84,6.32z M684.65,327.87c-5.95-0.09-10.55,4.23-10.72,10.06
			c-0.17,5.95,4.65,10.93,10.55,10.92c5.68-0.01,10.4-4.74,10.46-10.49C694.99,332.49,690.55,327.96,684.65,327.87z M649.72,116.84
			c-5.77,0.04-10.51,4.64-10.63,10.33c-0.12,5.63,5.17,10.79,10.93,10.66c5.79-0.13,10.11-4.74,10.05-10.73
			C660.02,121,655.77,116.79,649.72,116.84z"/>
		<path class="st1" d="M715.93,465.82c0.48-3.05,3.2-4.49,4.87-6.66c15.14-19.62,24.22-41.46,24.45-67.92
			c2.57,4.48,1.83,8.2,2.15,11.55c1.13,11.82,0.18,23.55-3.18,35.01c-4.03,13.77-13.48,22.47-26.29,28.02
			C717.26,465.82,716.59,465.82,715.93,465.82z"/>
		<path class="st2" d="M346,213.92c13.99,0,27.99,0.12,41.98-0.08c3.74-0.05,4.31,0.95,3.62,4.51
			c-7.97,41.3-15.83,82.62-23.54,123.97c-0.79,4.25-2.41,6.37-6.78,7.65c-26.97,7.92-54.32,13.12-82.55,12.43
			c-19.47-0.47-38.41-3.69-56.13-12.18c-33.17-15.91-51.21-42.99-55.18-78.86c-4.86-43.9,6.77-83.46,35.6-117.36
			c19.59-23.04,44.84-37.34,73.72-45.3c37.59-10.37,75.28-10.03,112.86,0.25c10.24,2.8,10.17,3.03,6.62,13.09
			c-3.92,11.12-7.96,22.21-11.65,33.41c-1.05,3.2-2.07,3.57-5.19,2.38c-24.86-9.5-50.51-12.02-76.52-6.45
			c-39.6,8.48-62.83,34.05-72.65,72.49c-3.91,15.3-4.81,30.92-1.34,46.5c5.61,25.2,22.7,40.86,48.37,44.43
			c12.8,1.78,25.52,1.71,38.14-1.73c3.34-0.91,4.91-2.55,5.51-5.93c2.65-14.9,5.26-29.82,8.42-44.61c0.98-4.58-0.59-4.76-4.19-4.7
			c-10.16,0.17-20.33-0.06-30.48,0.13c-3.17,0.06-4.02-0.71-3.37-3.91c2.47-12.05,4.77-24.13,6.96-36.23
			c0.53-2.94,1.59-4.04,4.78-3.99C317.35,214.03,331.67,213.92,346,213.92z"/>
		<path class="st2" d="M45.49,363.84c-13.48,0.29-25.97-1.28-38.35-4.2c-3.7-0.87-4.75-2.53-3.87-6.27
			c2.99-12.61,5.92-25.24,8.41-37.95c0.8-4.07,2.33-4.1,5.65-3.23c12.5,3.26,25.18,4.77,38,2.14c13.21-2.71,21.36-11.46,26.72-23.3
			c6.33-13.97,7.99-29.12,10.84-43.94c8.91-46.35,17.58-92.74,26.29-139.12c0.53-2.81,1.42-4.14,4.74-4.1
			c15.82,0.22,31.64,0.1,47.46,0.09c2.07,0,3.75-0.4,3.08,3.05c-11.54,59.38-22.8,118.81-34.46,178.16
			c-2.96,15.06-8.37,29.37-16.67,42.46c-13.79,21.73-34.31,32.12-59.17,35.22C57.71,363.64,51.24,364.13,45.49,363.84z"/>
		<path class="st2" d="M493.93,103.97c-5.43,28.77-10.73,57.03-16.1,85.28c-10.56,55.54-21.2,111.07-31.66,166.64
			c-0.58,3.1-1.5,4.09-4.68,4.06c-15.49-0.17-30.99-0.18-46.49,0c-3.55,0.04-4.57-0.78-3.88-4.39
			c10.53-54.87,20.97-109.76,31.42-164.64c5.19-27.28,10.41-54.56,15.43-81.87c0.67-3.63,1.64-5.27,5.82-5.19
			c14.99,0.29,29.99,0.12,44.99,0.12C490.41,103.97,492.04,103.97,493.93,103.97z"/>
		<path class="st3" d="M792.87,107.95c-0.87,10.75-4.92,20.64-8.5,30.61c-10.4,28.97-29.38,51.8-51.56,72.52
			c-25.54,23.87-55.83,40.78-84.96,59.45c-24.94,15.98-50.27,31.43-72.59,51.14c-11.26,9.94-21.74,20.61-31.28,32.22
			c-1.04,1.26-2.1,2.5-3.64,4.34c-0.41-3.62,0.97-6.12,1.75-8.62c7.92-25.27,18.21-49.45,35.79-69.66
			c19.6-22.53,42.78-40.94,68.18-56.55c29.5-18.13,59.15-36.05,87.23-56.34c22.52-16.28,42.73-35.04,58.49-58.18
			c0.26-0.38,0.76-0.58,1.15-0.86L792.87,107.95z"/>
		<path class="st4" d="M737.72,413.41c-0.83-1.41-1.3-1.91-1.44-2.49c-9.58-39.85-28.17-75.51-50.78-109.3
			c-6.57-9.82-13.03-19.71-19.81-29.39c-1.86-2.65-1.44-3.68,1.13-5.24c10.11-6.1,20.18-12.28,30.06-18.73
			c3.06-2,4.19-0.86,5.72,1.6c9.56,15.46,16.78,32.07,24.29,48.57c12.84,28.21,15.41,57.92,13.42,88.32
			C739.76,395.33,738.67,403.88,737.72,413.41z"/>
		<path class="st4" d="M597.08,53.4c2.97,9.84,5.26,18.48,8.18,26.91c11.61,33.55,29.1,64.07,48.84,93.39
			c4.92,7.31,9.6,14.79,14.65,22.01c2.01,2.88,2.27,4.32-1.23,6.3c-8.97,5.07-17.66,10.64-26.44,16.03
			c-5.77,3.54-5.76,3.55-9.52-2.4c-9.7-15.37-17.1-31.89-24.53-48.42c-12.87-28.63-14.57-58.77-12.53-89.43
			C595.01,70.07,596.11,62.38,597.08,53.4z"/>
		<path class="st4" d="M746.88,49.11c4.02-1.03,8.02-2.18,12.08-3.07c14.92-3.25,23.36-12.41,25.37-28.13
			c3.98,3.82,5.85,8.4,7.66,12.9c11.2,27.82,5.63,53.52-10.7,77.45c-16.35,23.96-38.3,42.35-61.15,59.72
			c-7.68,5.83-15.47,11.52-23.72,16.55c-0.18-0.25-0.39-0.49-0.6-0.71c8.87-8.66,18.5-16.56,26.3-26.29c3-3.75,5.99-7.51,7.91-11.98
			c3.37-7.86,2-10.84-6.1-13.13c-0.95-0.27-1.95-0.35-2.93-0.52c0.29-2.33-0.6-4.82,0.89-7c11.9-1,22.52-5.44,32.15-12.28
			c11.72-8.33,18.41-19.78,20.26-34.03c1.47-11.29-3.1-17.12-14.42-18.8c-4.3-0.64-8.58-0.86-12.91-0.72
			C746.94,55.73,746.91,52.42,746.88,49.11z"/>
		<path class="st4" d="M585.78,415.61c-5.53,1.15-11.15,2-16.59,3.52c-10.44,2.93-17.04,9.95-20.16,20.27
			c-0.51,1.7-0.88,3.44-1.5,5.85c-7.24-10.87-10.65-22.37-11.36-34.62c-1.33-23,7.36-42.59,21.58-60.04
			c17.96-22.04,40.19-39.21,63.53-55.07c6.13-4.16,12.43-8.08,19.19-12.45c0.11,3.18-1.91,3.73-3.11,4.73
			c-8.81,7.39-17.55,14.85-24.74,23.9c-1.85,2.33-3.56,4.83-4.96,7.45c-4.38,8.2-2.72,11.71,6.28,13.84c0,2.56,0.01,5.12,0.01,7.68
			c-23.44,2.79-42.27,12.26-51.47,35.59c-1.71,4.34-2.74,8.86-2.53,13.61c0.33,7.62,3.82,12.01,11.25,13.73
			c4.37,1.02,8.82,1.59,13.33,1.59C584.67,408.7,584.67,412.22,585.78,415.61z"/>
		<path class="st5" d="M613.96,340.67c0-2.56-0.01-5.12-0.01-7.68c3.16-16.03,16.2-23.2,28.04-22.32
			c11.23,0.83,20.88,8.6,23.6,19.69c2.8,11.41-2.17,23.01-12.45,29.08c-9.42,5.56-22.15,4.24-30.23-2.97
			C618.11,352.17,615.45,346.77,613.96,340.67z"/>
		<path class="st6" d="M721.88,124.88c-1.49,2.18-0.59,4.67-0.89,7c-4.79,16.54-20.03,22.43-33.59,17.91
			c-11.64-3.88-18.46-16.17-16.35-28.66c1.96-11.61,13.12-20.79,25.23-20.78c11.99,0.01,22.48,8.77,24.73,20.64
			C721.26,122.3,721.59,123.58,721.88,124.88z"/>
		<path class="st5" d="M746.88,49.11c0.03,3.31,0.06,6.63,0.09,9.94c-2.65,11.35-9.99,18.3-20.07,19
			c-11.39,0.79-19.58-4.68-24.01-16.06c-0.29-0.9-0.59-1.8-0.88-2.71c-0.46-11.15,3.38-19.94,14.17-24.44
			c10.9-4.54,22.98,0.04,28.51,10.45C745.37,46.58,746.14,47.83,746.88,49.11z"/>
		<path class="st7" d="M585.78,415.61c-1.11-3.39-1.11-6.91-1.23-10.42c1.97-12.29,10.41-20.16,21.83-20.34
			c11.86-0.19,20.38,7.11,22.97,19.7c0.06,0.94,0.12,1.87,0.18,2.81c-0.55,18.57-18.81,26.63-32,20.5
			C591.99,425.29,588.26,421.06,585.78,415.61z"/>
		<path class="st8" d="M648.06,88.13c-10.9-0.18-19.4-9.09-19.12-20.04c0.27-10.58,9.29-19.18,19.83-18.93
			c10.58,0.25,19.22,9.12,19.16,19.65C667.87,79.66,658.98,88.31,648.06,88.13z"/>
		<path class="st9" d="M683.41,376.73c10.65,0.05,19.3,8.69,19.38,19.35c0.08,10.7-9.01,19.76-19.7,19.62
			c-10.7-0.14-19.23-8.74-19.28-19.44C663.75,385.28,672.39,376.67,683.41,376.73z"/>
		<path class="st1" d="M615.84,6.32c-17.5,22.16-28.15,46.64-27.07,75.61c-2.45-2.99-2.01-6.47-2.25-9.56
			c-1.28-16.5-2.07-33.06,6.42-48.22C597.99,15.12,605.65,9.14,615.84,6.32z"/>
		<path class="st10" d="M684.65,327.87c5.89,0.09,10.34,4.62,10.28,10.49c-0.05,5.75-4.77,10.49-10.46,10.49
			c-5.9,0.01-10.72-4.98-10.55-10.92C674.1,332.1,678.7,327.78,684.65,327.87z"/>
		<path class="st11" d="M649.72,116.84c6.05-0.05,10.3,4.17,10.36,10.26c0.05,6-4.26,10.6-10.05,10.73
			c-5.76,0.13-11.05-5.03-10.93-10.66C639.21,121.48,643.94,116.88,649.72,116.84z"/>
		<path class="st4" d="M629.52,407.37c-0.06-0.94-0.12-1.88-0.18-2.81c5.06-0.62,10.12-1.17,15.23,0.03
			C639.55,405.51,634.54,406.44,629.52,407.37z"/>
		<path class="st4" d="M702,59.27c0.29,0.9,0.59,1.8,0.88,2.71c-4.85,0.07-9.59,1.95-14.92,0.55C692.85,61.4,697.43,60.34,702,59.27
			z"/>
		<path class="st3" d="M792.95,108.02c0.06-0.32,0.12-0.64,0.18-0.97c0.15,0.11,0.29,0.21,0.44,0.32c-0.23,0.19-0.46,0.38-0.7,0.57
			C792.87,107.95,792.95,108.02,792.95,108.02z"/>
		<path class="st4" d="M696.41,184.52c-0.76,0.48-1.51,0.95-2.19-0.11c0.53-0.2,1.05-0.4,1.58-0.6
			C696.03,184.03,696.23,184.27,696.41,184.52z"/>
	</g>
</g>
</svg>
