<?xml version="1.0" encoding="utf-8"?>
<!-- Generator: Adobe Illustrator 25.4.1, SVG Export Plug-In . SVG Version: 6.00 Build 0)  -->
<svg version="1.1" id="Layer_1" xmlns="http://www.w3.org/2000/svg" xmlns:xlink="http://www.w3.org/1999/xlink" x="0px" y="0px"
	 viewBox="0 0 800 594" style="enable-background:new 0 0 800 594;" xml:space="preserve">
<style type="text/css">
	.st0{fill:#72CCD2;}
	.st1{fill:#C7D13E;}
	.st2{fill:#FFD200;}
	.st3{clip-path:url(#SVGID_00000106853477628392247600000010771569505010642091_);}
	.st4{fill:none;stroke:#F78E1E;stroke-width:1.83;stroke-miterlimit:10;}
	.st5{fill:#F78E1E;}
	.st6{clip-path:url(#SVGID_00000143587461113234846060000017708796626976244366_);}
	.st7{fill:#5E9732;}
	.st8{clip-path:url(#SVGID_00000122720552333360439390000015501794717072006039_);}
	.st9{fill:#007DC3;}
	.st10{fill:#BBA800;}
	.st11{fill:#5BA8B4;}
	.st12{font-family:'MyriadPro-Regular';}
	.st13{font-size:35px;}
	.st14{font-size:133.3122px;}
</style>
<g>
	<g>
		<g>
			<path class="st0" d="M309.26,214.8c-21.19-0.02-41.55,8.19-56.79,22.9c32.63,31.33,33.67,83.18,2.34,115.81
				c-0.77,0.79-1.54,1.58-2.34,2.34c32.63,31.37,84.52,30.36,115.89-2.28s30.36-84.52-2.28-115.89
				C350.81,222.99,330.44,214.8,309.26,214.8z"/>
			<path class="st1" d="M227.3,296.77c-0.02-22.29,9.08-43.64,25.17-59.06c-31.7-30.54-81.88-30.54-113.58,0
				c32.63,31.29,33.71,83.12,2.4,115.75c-0.79,0.81-1.58,1.63-2.4,2.4c31.7,30.54,81.88,30.54,113.58,0
				C236.36,340.41,227.28,319.08,227.3,296.77z"/>
			<path class="st2" d="M138.9,355.85c-32.63-31.33-33.67-83.18-2.34-115.81c0.77-0.79,1.54-1.58,2.34-2.34l0,0
				c-32.63-31.39-84.52-30.4-115.91,2.23s-30.4,84.52,2.23,115.91C56.94,386.39,107.14,386.39,138.9,355.85z"/>
			<g>
				<g>
					<defs>
						<path id="SVGID_1_" d="M138.9,355.85c-32.63-31.33-33.67-83.18-2.34-115.81c0.77-0.79,1.54-1.58,2.34-2.34l0,0
							c-32.63-31.39-84.52-30.4-115.91,2.23s-30.4,84.52,2.23,115.91C56.94,386.39,107.14,386.39,138.9,355.85z"/>
					</defs>
					<clipPath id="SVGID_00000038413722998058364830000017611025232953245871_">
						<use xlink:href="#SVGID_1_"  style="overflow:visible;"/>
					</clipPath>
					<g style="clip-path:url(#SVGID_00000038413722998058364830000017611025232953245871_);">
						<path class="st4" d="M85.48,189.1c-4.57,10.5,7.31,31.37,10.16,42.16c4.31,16.68,0.71,28.24-16.25,34.93
							c-13.41,5.26-32.92,8.43-36.98,24.63c-4.55,18.16,13.49,32.67,15.93,49.35c5.24,35.37-57.95,29.05-69.77,52.95"/>
						<path class="st4" d="M113.13,199.99c-3.78,10.75-26.7,17.96-36.13,23.95c-14.55,9.24-19.83,20.2-11.99,36.57
							c6.24,12.98,18.43,28.59,10.3,43.2c-9.08,16.42-32.16,14.71-45.31,25.26c-27.84,22.39,22.7,60.79,15.04,86.37"/>
						<path class="st5" d="M34.44,298.11c-6.56,2.11-13.61-1.52-15.71-8.09c0-0.02,0-0.02-0.02-0.04l0,0
							c-2.09-6.58,1.54-13.63,8.13-15.73l0,0L77.8,258c6.58-2.09,13.61,1.54,15.73,8.13l0,0c2.09,6.56-1.5,13.59-8.05,15.73
							L34.44,298.11z"/>
						<path class="st5" d="M59.07,300.3c-5.67-3.96-7.05-11.76-3.09-17.43l0,0l0,0c3.96-5.67,11.78-7.07,17.45-3.11
							c0.02,0.02,0.04,0.02,0.06,0.04l43.83,30.66c5.67,3.94,7.05,11.74,3.11,17.39c0,0,0,0-0.02,0.02l0,0
							c-3.94,5.67-11.74,7.09-17.41,3.13c0,0,0,0-0.02,0L59.07,300.3z"/>
						<circle class="st5" cx="84.51" cy="360.26" r="10.83"/>
						<path class="st5" d="M82.37,350.55c0,3.37-3.17,6.01-6.68,5.1c-1.79-0.47-3.23-1.91-3.7-3.7c-0.91-3.51,1.73-6.68,5.1-6.68
							l0,0C80,345.27,82.37,347.64,82.37,350.55L82.37,350.55z"/>
						<circle class="st5" cx="91.6" cy="349.43" r="13.82"/>
						<path class="st5" d="M94.24,253.02c-7.68-2.13-12.17-10.1-10.04-17.8c2.13-7.68,10.1-12.17,17.8-10.04
							c7.68,2.13,12.17,10.1,10.04,17.78C109.88,250.64,101.92,255.16,94.24,253.02z"/>
					</g>
				</g>
			</g>
			<g>
				<g>
					<defs>
						<path id="SVGID_00000134940645039431928100000001057523494740293268_" d="M227.3,296.77c-0.02-22.29,9.08-43.64,25.17-59.06
							c-31.7-30.54-81.88-30.54-113.58,0c32.63,31.29,33.71,83.12,2.4,115.75c-0.79,0.81-1.58,1.63-2.4,2.4
							c31.7,30.54,81.88,30.54,113.58,0C236.36,340.41,227.28,319.08,227.3,296.77z"/>
					</defs>
					<clipPath id="SVGID_00000122717247208869561650000010103477482337307527_">
						<use xlink:href="#SVGID_00000134940645039431928100000001057523494740293268_"  style="overflow:visible;"/>
					</clipPath>
					<g style="clip-path:url(#SVGID_00000122717247208869561650000010103477482337307527_);">
						<path class="st7" d="M189.69,406.93c7.01-16.27,10.65-33.81,10.69-51.53c-0.02-53.23-29.56-106.4-36.27-105.27
							c32.12,52.95,31.09,101.06,24.04,156.12"/>
						<path class="st7" d="M188.76,406.02c2.17-7.68,2.84-15.71,2.03-23.65c-2.46-24.1-17.13-47.26-19.85-46.53
							c15.73,22.96,17.45,45.17,17.07,70.32"/>
						<path class="st7" d="M188.01,406.79c0.55-24.75,9.73-59.67,15.81-76.19c5.65-15.87,32.77-69.08,34.76-67.76
							c-37.28,68.53-45.63,140.93-44.29,144.99"/>
						<path class="st7" d="M190.53,405.79c-3.01-19.51-3.54-39.29-1.61-58.92c5.95-58.82,32.18-112.36,36.57-109.92
							c-27.96,52.83-32.63,106.2-33.91,168.4"/>
						<path class="st7" d="M189.29,406.85c2.4-27.49,0-67.76-2.36-87.14c-2.03-18.55-14.79-82.23-16.25-81.27
							c17.98,82.53,15.6,164.05,14.22,168.25"/>
						<path class="st7" d="M187.42,406.71c2.4-27.49,7.48-60.45,7.48-82.33c0-29.54-6.42-77.94-5.91-78.33
							c17.98,82.53,3.11,156.63,1.75,160.82"/>
					</g>
				</g>
			</g>
			<g>
				<g>
					<defs>
						<path id="SVGID_00000049211726550896961020000018002473626739376029_" d="M309.26,214.8c-21.19-0.02-41.55,8.19-56.79,22.9
							c32.63,31.33,33.67,83.18,2.34,115.81c-0.77,0.79-1.54,1.58-2.34,2.34c32.63,31.37,84.52,30.36,115.89-2.28
							s30.36-84.52-2.28-115.89C350.81,222.99,330.44,214.8,309.26,214.8z"/>
					</defs>
					<clipPath id="SVGID_00000111191807689137266470000004969895255682377600_">
						<use xlink:href="#SVGID_00000049211726550896961020000018002473626739376029_"  style="overflow:visible;"/>
					</clipPath>
					<g style="clip-path:url(#SVGID_00000111191807689137266470000004969895255682377600_);">
						<path class="st9" d="M326.11,339.05c2.03,1.61,4.37,1.28,6.52,3.49c1.34,1.38,4.06,4.96,3.92,6.93c0,1.28-1.71,2.54-2.19,3.74
							c-0.49,1.2-0.39,2.82-0.95,4.27c-1,2.52-3.41,4.27-4.51,6.58c-1.26,2.38-2.07,4.98-2.44,7.64c-0.33,3.64,1.1,4.21,4.88,3.03
							c3.78-1.18,3.54-3.15,3.82-5.83c-0.2,0.08-0.45,0.08-0.65,0c-0.55-4.67,9.71-8.94,13.04-10.79c5.32-2.99,7.46-7.9,11.99-11.3
							c2.5-1.87,5.02-2.91,6.79-5.71s1.34-5.77,2.78-8.61c0.93-1.87,4.21-4.41,4.25-6.26c0-2.99-5.24-3.82-7.64-4.06
							c-4.39-0.67-6.6,1.73-7.64-3.47c-1.04-5.2-2.03-4.33-6.95-6.1c-3.41-1.12-5.87-4.71-9.02-5.49c-1.73-0.16-3.49-0.16-5.22,0
							c-1.46,0-3.62-1.38-3.17,1.77c-0.89-0.28-1.67-1.56-2.38-1.71c-1.36-0.04-2.72,0.06-4.06,0.28c-2.62-0.08-5.22-0.51-7.72-1.3
							c-4.19-1.18-1.71-2.46-3.45-5.59c-1.24-2.19-5.28-3.25-7.6-3.15c0.2-2.3,0.79-5.16-2.48-5.16c-2.28,0-4.06,3.82-6.52,3.05
							c-2.03-0.59-4.33-5.12-4.67-6.87c-0.51-2.91,0.43-5.89,2.5-8.01c2.03-1.79,5.4-1.63,8.01-1.73c2.03,0,6.1-1.12,7.64-0.71
							c3.13,0.81,2.13,3.8,3.37,6.1c1.18,2.11,3.23,3.6,5.59,4.06c0.77-2.82-3.29-5.26-4.06-7.96c-0.89-3.37,0.89-2.68,3.82-4.06
							c2.93-1.38,2.4-2.7,3.72-5.28c1.32-2.58,6.1-3.27,6.66-5.51c3.19-0.26,3.07-4.06,6.5-4.19c0.37,3.31,5.95,0.87,5.89-1.38
							c-3.37,0.14-4.92-0.35-4.17-3.82c-1.34,0-2.74,0-4.06-0.12c2.82-4.06,8.41,1.58,11.72-1.22c-0.08,1.16-0.39,2.28-0.93,3.29
							c2.36,1.12,4.94,1.73,7.54,1.77c0.39-2.03-0.71-2.64-2.03-3.88c-0.51-0.53-1.61-0.2-2.03-0.67s-0.51-1.48-1.02-2.03
							c-2.46-2.56-3.94-2.44-7.05-4.06s-1.91-4.73-5.2-5.65c-1.36-0.39-2.34,0.55-3.56,0s-2.44-2.03-3.66-2.6
							c-1.89-0.95-6.79-2.7-7.74,0c-0.53,1.56,1.28,2.58,1.75,3.76c0.89,2.21,0.87,1.32,0,3.31c-1.04,2.64-2.8,4.61-5.71,3.13
							c-3.23-1.67-5.51-4.06-9.31-5.24c-4.73-1.61-12.19-5.73-3.45-7.7c2.62-0.33,5.2-0.89,7.72-1.67c1.08-0.47,1.58-1.73,3.03-2.26
							c1.69-0.39,3.43-0.47,5.16-0.2c0.95,2.5,6.1,2.28,8.39,2.3c4.29,0,7.29-2.72,1.38-4.19c-5.49-1.36-12.82-2.8-18.39-2.03
							c-1.44,0.22-2.64,0.87-4.17,1.04c-1.52,0.16-3.76-0.49-5.2,0.37c-1.44,0.85-0.83,1.73-2.03,3.11
							c-1.67,1.81-3.39,1.65-5.59,2.03c-8.31,1.63-16.52-1.24-24.58,1.48c-5.18,1.75-11.91,1.18-15.77,4.67
							c-2.17,2.03-3.82,4.31-6.1,6.1c-1.91,1.5-3.56,7.21-3.56,7.21c2.78-4.06,8.13-3.64,12.45-3.41c0.59,2.32,2.03,2.03,3.51,3.17
							c1.48,1.14,2.03,2.66,3.41,3.43c-1.3,5.42,0.43,14.81,4.67,19.04c3.01,3.01,4.73,2.64,6.1,6.6c1.02,2.86,2.34,6.87,4.65,8.74
							c0.63-2.78-1.04-4.06-2.32-6.24c-1.02-2.07-1.69-4.27-2.03-6.54c1.36,2.84,4.25,3.92,6.34,6.1c2.54,2.68,1.2,5.59,3.07,8.33
							c1.87,2.74,5.89,2.15,8.66,3.58c1.4,0.71,2.03,2.03,3.47,2.36c1.44,0.33,3.29-0.93,4.82-1c2.03,3.39,6.3,2.03,9.08,3.74
							s2.58,7.86,7.58,7.03c0.83,2.46,3.56,0.87,5.22,0.33c0.45,5.42-2.56,6.38-4.39,10.73
							C319.14,324.66,325.09,338.28,326.11,339.05z"/>
						<path class="st9" d="M271.31,234.47c-0.89,0.53-2.64,1.71-2.82,2.82c2.76-0.41,4.88-3.09,8.01-2.66
							c1.24,0.3,2.54,0.35,3.8,0.1c1.4-0.26,2.82-0.26,4.23,0c1.48,0.16,2.82-0.47,4.21-0.12c1.38,0.35,2.48,0.89,3.7,0.22
							c2.03-1.12-0.47-1.75-1.04-2.54c-0.24-0.35-0.18-1-0.49-1.22c-0.55-0.16-1.16-0.16-1.71,0c-1.1,0.26-2.15,0.63-3.17,1.1
							c-1.63,0.53-3.27,0.93-4.96,1.2c0-1.5,4.53-2.28,5.65-2.52c1.56-0.35,2.21-1.02,0.14-1.14c0-1.46-0.65-2.03-2.23-1.71
							c-2.52,0.77-4.98,1.71-7.36,2.84c-1.69,0.61-3.21,1.61-4.45,2.93c-0.81,0.77-1.77,1.36-2.82,1.75"/>
						<path class="st9" d="M329.3,228.48c0.85-0.37,1.85-0.06,2.36,0.73c0.43,0.67,0.35,1.06,1.16,1.4c0.69,0.22,1.42,0.28,2.15,0.2
							c3.27,0,6.87-0.12,9.83,1.63c1.16,0.63,2.26,1.34,3.31,2.13c0.45,0.41,0.93,0.77,1.44,1.1c0.85,0.33,1.69,0.69,2.5,1.1
							c0.83,0.79,1.24,1.95,1.08,3.09c-0.3,0.61-1.58,0.53-2.34,0.51c-0.45,1.65,3.54,3.41,4.47,4.06c1.69,1.12,3.25,2.4,4.65,3.86
							c1.46,1.4,2.03,1.1,3.23-0.49c0.93-1.24,1.63-1.85,3.19-1.63c1.56,0.22,2.03,0.28,3.11-0.81c0.65-0.71,1.83-1.69,1.46-2.74
							c-0.24-0.71-1.32-1.26-1.89-1.73c-1.12-0.95-2.21-2.03-3.31-2.95c-2.66-2.32-5.65-4.25-8.86-5.73
							c-2.03-1.02-3.96-2.58-6.1-3.47c-2.5-0.79-5.14-1.14-7.76-1.02c-2.03-0.08-4.04-0.57-5.91-1.38
							c-1.75-0.39-3.51-0.65-5.28-0.77c-2.56-0.61-5.18-0.91-7.8-0.87c-3.07,0-6.2-0.47-9.26-0.33c-1.16,0.18-2.3,0.47-3.41,0.83
							c-1.2,0.14-2.42,0.2-3.64,0.18c-1.44-0.12-2.91,0.06-4.27,0.55c-0.51,0.33-0.57,0.89-1.14,1.22c-0.57,0.33-3.31,0-3.31,1.08
							c1.36,0,2.68-0.71,4.06-0.51c1.2,0.41,2.48,0.51,3.74,0.3c1.44-0.55,2.95-0.91,4.47-1.12c1.61,0,3.27-0.2,4.86-0.2
							c1.58,0,3.27,0.45,4.92,0.51c0.87,0.06,1.73,0.06,2.6,0c0.83-0.24,1.69-0.41,2.54-0.49c0.77,0,0.63,0.33,1.3,0.71
							c0.87,0.39,1.83,0.53,2.76,0.41c1.24,0,1.89,0,1.5,1.32"/>
						<path class="st9" d="M386.7,285.92c-0.67,0.53-0.1,2.03-0.33,2.89c-0.47,1.58,0.77,2.48,0.77,4.06
							c0.02,1.54,0.12,3.07,0.3,4.59c0.22,2.03,1.42,3.84,0.83,5.77c-0.43,1.38,0.45,2.5,0.51,4.06c-0.08,0.69,0.06,1.4,0.39,2.03
							c0.1,0.14,1,0.73,1.22,0.63c0.75-0.28,0.71-2.78,0.79-3.45c0.53-4.06,2.03-8.25,2.03-12.45c0-2.36-1.14-3.27-2.03-5.28
							c-0.77-1.16-1.63-2.28-2.56-3.31"/>
						<path class="st9" d="M316.66,289.63c-0.53-0.41-3.19,2.03,0,1.04c1.52-0.3,3.11-0.08,4.51,0.61c0.93,0.39,3.64,0.49,4.06,1.5
							c0.18,0.35-0.24,0.93,0,1.22s2.13,0.43,2.62,0.2c0.49-0.22,1.26-1.1,1.12-1.71c-0.14-0.61-1.34-0.83-1.91-1.06
							c-1.22-0.45-2.26-1.65-3.49-1.87c-0.61-0.12-1.18,0.2-1.73,0.16s-1.52-0.55-2.4-0.61c-0.83-0.18-1.69-0.28-2.54-0.3
							c-0.55,0.18-0.53,0.51-0.81,0.91"/>
						<path class="st9" d="M324.46,295.53c-0.16-0.14-0.24-0.26-0.49-0.18c-0.28,1.3,2.03,1.65,2.03,0.49
							c0-0.67-1.67-0.87-2.03-0.51"/>
						<path class="st9" d="M332.26,292.38c-0.33,0.24-1.06,0.65-1.22,1.04c-0.33,0.91,0.39,0.37,0.49,1c0.22,1.2-1.5,0.41-1.67,1.24
							c-0.33,1.42,2.38,0.49,2.7,0.51c1.04,0,1.22,0.83,2.54,0.26c0.47-0.2,0.57-0.43,1.12-0.49c0.55-0.06,0.81,0.2,1,0
							c1.18-0.87-1.2-1.85-1.69-2.03c-0.63-0.43-1.3-0.77-2.03-1.02c-0.28,0-0.71,0-1.02-0.18c-0.3-0.18-0.26-0.53-0.81-0.22"/>
					</g>
				</g>
			</g>
			<path class="st0" d="M227.28,296.87c-0.02,22.31,9.08,43.66,25.19,59.08c32.63-31.35,33.69-83.2,2.34-115.83
				c-0.77-0.79-1.54-1.56-2.34-2.34C236.36,253.2,227.26,274.56,227.28,296.87z"/>
			<ellipse class="st10" cx="138.9" cy="296.87" rx="25.19" ry="59.08"/>
			<path class="st11" d="M227.28,296.87c-0.02,22.31,9.08,43.66,25.19,59.08c32.63-31.35,33.69-83.2,2.34-115.83
				c-0.77-0.79-1.54-1.56-2.34-2.34C236.36,253.2,227.26,274.56,227.28,296.87z"/>
		</g>
	</g>
	<text transform="matrix(1 0 0 1 421.6543 366.8444)" class="st7 st12 st13">PREDICTIVE  BIOLOGY</text>
	<text transform="matrix(1 0 0 1 414.3242 332.6457)" class="st12 st14">KBase</text>
</g>
</svg>
